<svg width="900" height="900" viewBox="0 0 900 900" fill="none" xmlns="http://www.w3.org/2000/svg">
<path fill-rule="evenodd" clip-rule="evenodd" d="M642.031 520.126V379.871H668.26V496.344H759.146V520.126H642.031Z" fill="white"/>
<path fill-rule="evenodd" clip-rule="evenodd" d="M777.883 520.126V379.871H804.112V496.344H894.997V520.126H777.883Z" fill="white"/>
<path fill-rule="evenodd" clip-rule="evenodd" d="M516.018 511.584L516.031 511.591L516.044 511.598C526.666 517.305 538.98 520.126 552.927 520.126C567.126 520.126 579.511 517.308 590.014 511.593L590.031 511.584C600.51 505.745 608.659 497.581 614.442 487.116C620.366 476.501 623.293 464.106 623.293 449.999C623.293 435.895 620.368 423.564 614.441 413.077C608.659 402.484 600.51 394.315 590.021 388.606C579.517 382.756 567.129 379.871 552.927 379.871C538.975 379.871 526.656 382.76 516.032 388.603505.54 394.313 497.325 402.483 491.413 413.075L491.409 413.083C485.614 423.569 482.756 435.898 482.756 449.999C482.756 464.1 485.615 476.49 491.404 487.102L491.411 487.116L491.418 487.129C497.331 497.586 505.541 505.746 516.018 511.584ZM577.658 409.294L577.678 409.304L577.698 409.314C584.2 412.413 589.024 417.224 592.219 423.805C595.432 430.425 597.101 439.119 597.101 449.999C597.101 460.739 595.434 469.442 592.213 476.203C589.017 482.782 584.188 487.662 577.677 490.891C571.246 494.014 563.026 495.631 552.927 495.631C542.836 495.631 534.548 494.017 527.98 490.891C521.609 487.667 516.843 482.793 513.644 476.211C510.549 469.444 508.948 460.738 508.948 449.999C508.948 439.118 510.552 430.418 513.641 423.792C516.841 417.207 521.606 412.401 527.973 409.307L527.987 409.301C534.55 406.046 542.835 404.366 552.927 404.366C563.021 404.366 571.233 406.047 577.658 409.294Z" fill="white"/>
<path d="M438.007 520.126H464.019V379.871H438.007V437.599H349.698V379.871H323.482V520.126H349.698V461.382H438.007V520.126Z" fill="white"/>
<path d="M173.328 487.102L173.333 487.112C179.386 497.578 187.915 505.744 198.884 511.584L198.902 511.593C209.886 517.304 222.64 520.126 237.103 520.126C250.279 520.126 261.952 518.05 272.075 513.841L272.087 513.836C282.348 509.492 290.372 503.278 296.068 495.169C301.389 487.771 304.265 479.202 304.743 469.523C276.276 469.523 304.743 469.523 276.276 469.523C275.677 477.714 272.506 483.846 266.919 488.162L266.903 488.174C260.751 493.024 251.016 495.631 237.308 495.631C226.745 495.631 218.147 494.016 211.417 490.897C204.886 487.677 199.958 482.804 196.604 476.212C193.365 469.444 191.689 460.738 191.689 449.999C191.689 439.118 193.368 430.417 196.601 423.791C199.956 417.195 204.883 412.39 211.41 409.301L211.424 409.294C218.149 406.047 226.743 404.366 237.308 404.366C251.016 404.366 260.751 406.973 266.903 411.823L266.919 411.835C272.424 416.088 275.583 422.104 276.248 430.114C304.726 430.114 276.248 430.114 304.726 430.114C304.2 420.481 301.333 412.027 296.063 404.822C290.366 396.714 282.342 390.567 272.081 386.356C261.956 382.013 250.281 379.871 237.103 379.871C222.636 379.871 209.878 382.76 198.893 388.606C187.913 394.318 179.382 402.49 173.331 413.087C167.268 423.572 164.277 435.9 164.277 449.999C164.277 464.1 167.269 476.49 173.328 487.102Z" fill="white"/>
<path fill-rule="evenodd" clip-rule="evenodd" d="M35.2123 514.442L35.2226 514.446C45.1876 518.259 64.6036 520.126 78.8198 520.126C93.0167 520.126 109.603 518.331 118.751 514.628L118.777 514.617C127.836 510.815 134.648 505.789 139.032 499.466C143.351 493.238 145.535 486.548 145.535 479.432C145.535 472.674 143.899 466.653 140.56 461.434C137.212 456.201 132.152 451.953 125.501 448.655C119.009 445.366 110.912 442.942 101.272 441.338L54.519 435.814C49.0979 434.649 44.7079 433.433 41.319 432.176C38.0682 430.842 35.8182 429.151 34.3996 427.173C32.9915 425.21 32.2058 422.593 32.2058 419.182C32.2058 415.475 33.2891 412.688 35.2778 410.622L35.2958 410.603L35.3133 410.584C37.3419 408.366 40.7141 406.545 45.7205 405.287C50.8589 404.031 64.9597 403.379 73.5057 403.379C83.317 403.379 98.1203 404.294 103.616 406.038L103.638 406.045L103.66 406.052C109.138 407.666 112.843 410.137 115.055 413.336L115.065 413.35L115.075 413.364C117.338 416.519 118.544 420.589 118.544 425.701V430.244H145.539V427.084C145.539 418.078 143.261 410.018 138.653 402.965C134.153 395.726 127.213 390.08 117.97 385.989C108.666 381.872 89.7152 379.871 75.6313 379.871C64.3025 379.871 47.2969 381.002 39.2422 383.314C31.3952 385.476 24.8889 388.478 19.8014 392.372C14.7705 396.222 11.0109 400.602 8.59144 405.52C6.20623 410.369 4.99805 415.324 4.99805 420.367C4.99805 427.898 6.76799 434.352 10.4418 439.616L10.4601 439.642L10.4792 439.668C14.2489 444.713 19.4271 448.739 25.9412 451.765L25.9586 451.774L25.9762 451.781C32.3969 454.629 39.6565 456.783 47.7382 458.258L47.7703 458.264L94.7865 463.599C103.615 465.163 109.684 467.205 113.266 469.582C116.522 471.744 118.327 475.264 118.327 480.618C118.327 484.318 117.246 487.284 115.187 489.647L115.18 489.656C113.316 491.82 109.996 493.636 104.845 494.899C99.6923 496.031 87.7995 496.619 78.8198 496.619C68.4354 496.619 53.1774 495.768 47.5225 494.145C41.8581 492.387 38.0781 489.96 35.877 487.014C33.6149 483.853 32.4184 479.85 32.4184 474.889V469.753H5.21061V472.913C5.21061 482.466 7.71219 490.886 12.7841 498.095L12.7947 498.109C17.8852 505.206 25.4041 510.633 35.2123 514.442Z" fill="white"/>
</svg>
